<svg xmlns="http://www.w3.org/2000/svg" xmlns:xlink="http://www.w3.org/1999/xlink" width="365" height="888.001" viewBox="0 0 365 888.001">
    <defs>
        <filter id="a" x="41" y="422.999" width="45" height="45" filterUnits="userSpaceOnUse">
            <feOffset dy="3" input="SourceAlpha" />
            <feGaussianBlur stdDeviation="3" result="b" />
            <feFlood flood-opacity="0.161" />
            <feComposite operator="in" in2="b" />
            <feComposite in="SourceGraphic" />
        </filter>
        <filter id="c" x="121" y="422.999" width="45" height="45" filterUnits="userSpaceOnUse">
            <feOffset dy="3" input="SourceAlpha" />
            <feGaussianBlur stdDeviation="3" result="d" />
            <feFlood flood-opacity="0.161" />
            <feComposite operator="in" in2="d" />
            <feComposite in="SourceGraphic" />
        </filter>
    </defs>
    <g transform="translate(1033 -1169.211) rotate(90)">
        <g transform="translate(1171 669)">
            <path d="M-3222.1,210a541.136,541.136,0,0,1-105-10.285l-88.99-17.6a65.828,65.828,0,0,1-28.486-13.027c-6.468-5.186-12.215-11.835-12.215-19.083V-90c0-7.248,5.747-13.9,12.215-19.083a65.819,65.819,0,0,1,28.493-13.027l24.85-4.908a3,3,0,0,1,2.385-3.443l64.79-12.594a3,3,0,0,1,3.457,2.125,541.091,541.091,0,0,1,72.873-8.457,3.012,3.012,0,0,1-.063-.616,3,3,0,0,1,3-3h90a3,3,0,0,1,3,3h543.374a30.015,30.015,0,0,1,30.03,30l5.457,84.29a1023.3,1023.3,0,0,1-.042,132.917L-2578.386,180a30.014,30.014,0,0,1-30.03,30Z" transform="translate(3456 153)" fill="#fff" stroke="#13293d" stroke-linecap="round" stroke-linejoin="round" stroke-miterlimit="10" stroke-width="2" />
        </g>
        <g transform="translate(1383.307 690.189)">
            <g transform="translate(0 81.564)">
                <g   transform="translate(0 163.128)">
                    <g transform="translate(0 0)">
                        <g transform="translate(-0.096 0.119)" fill="#fff" stroke="#13293d" stroke-width="1">
                            <rect width="70" height="70" rx="5" stroke="none" />
                            <rect x="0.5" y="0.5" width="69" height="69" rx="4.5" fill="none" />
                        </g>
                    </g>
                    <g transform="translate(20.904 39.119) rotate(-90)">
                        <text transform="translate(0 22)" fill="#13293d" font-size="22" font-family="Montserrat-Regular, Montserrat">
                            <tspan x="0" y="0">1</tspan>
                        </text>
                    </g>
                </g>
                <g class="place" data-place="20" transform="translate(0 82.564)">
                    <g transform="translate(0 0)">
                        <rect width="70" height="70" rx="5" transform="translate(-0.096 0.683)" fill="#f3d228" />
                    </g>
                    <g transform="translate(20.904 41.683) rotate(-90)">
                        <text transform="translate(0 22)" fill="#fbfbff" font-size="22" font-family="Montserrat-Regular, Montserrat">
                            <tspan x="0" y="0">2</tspan>
                        </text>
                    </g>
                </g>
                <g class="place" data-place="21" transform="translate(0 3)">
                    <g transform="translate(0 0)">
                        <g transform="translate(-0.096 0.247)" fill="#fff" stroke="#13293d" stroke-width="1">
                            <rect width="70" height="70" rx="5" stroke="none" />
                            <rect x="0.5" y="0.5" width="69" height="69" rx="4.5" fill="none" />
                        </g>
                    </g>
                    <g transform="translate(29.404 20.747)">
                        <text transform="translate(13.5 20.5) rotate(-90)" fill="#13293d" font-size="22" font-family="Montserrat-Regular, Montserrat">
                            <tspan x="0" y="0">3</tspan>
                        </text>
                    </g>
                </g>
            </g>
            <g transform="translate(113.95 0)">
                <g transform="translate(0 244.692)">
                    <g transform="translate(0 0)">
                        <rect width="70" height="70" rx="5" transform="translate(-0.046 0.119)" fill="#f3d228" />
                    </g>
                    <g transform="translate(28.388 19.391)">
                        <text transform="translate(14.565 22.728) rotate(-90)" fill="#fbfbff" font-size="22" font-family="Montserrat-Regular, Montserrat">
                            <tspan x="0" y="0">4</tspan>
                        </text>
                    </g>
                </g>
                <g transform="translate(0 164.128)">
                    <g transform="translate(0 0)">
                        <rect width="70" height="70" rx="5" transform="translate(-0.046 0.683)" fill="#f3d228" />
                    </g>
                    <g transform="translate(20.954 41.683) rotate(-90)">
                        <text transform="translate(0 22)" fill="#fbfbff" font-size="22" font-family="Montserrat-Regular, Montserrat">
                            <tspan x="0" y="0">5</tspan>
                        </text>
                    </g>
                </g>
                <g transform="translate(0 4)">
                    <g transform="translate(0 0)">
                        <rect width="70" height="70" rx="5" transform="translate(-0.046 0.811)" fill="#f3d228" />
                    </g>
                    <g transform="translate(20.954 41.811) rotate(-90)">
                        <text transform="translate(0 22)" fill="#fbfbff" font-size="22" font-family="Montserrat-Regular, Montserrat">
                            <tspan x="0" y="0">6</tspan>
                        </text>
                    </g>
                </g>
            </g>
            <g transform="translate(227.9 0)">
                <g transform="translate(0 244.692)">
                    <g transform="translate(0.004 0)">
                        <rect width="70" height="70" rx="5" transform="translate(0 0.119)" fill="#20bf55" />
                    </g>
                    <g transform="translate(20.004 41.119) rotate(-90)">
                        <text transform="translate(0 22)" fill="#fbfbff" font-size="22" font-family="Montserrat-Regular, Montserrat">
                            <tspan x="0" y="0">7</tspan>
                        </text>
                    </g>
                    <g transform="translate(-593.996 1638.119) rotate(-90)">
                        <g transform="matrix(1, 0, 0, 1, 1540, 152)" filter="url(#a)">
                            <circle cx="13.5" cy="13.5" r="13.5" transform="translate(50 429)" fill="#fff" />
                        </g>
                        <text transform="translate(1598 601)" fill="#f11f35" font-size="16" font-family="Montserrat-Regular, Montserrat">
                            <tspan x="0" y="0">8</tspan>
                        </text>
                    </g>
                </g>
                <g transform="translate(0 164.128)">
                    <g transform="translate(0.004 0)">
                        <rect width="70" height="70" rx="5" transform="translate(0 0.683)" fill="#20bf55" />
                    </g>
                    <g transform="translate(26.504 21.183)">
                        <text transform="translate(15.5 21.5) rotate(-90)" fill="#fbfbff" font-size="22" font-family="Montserrat-Regular, Montserrat">
                            <tspan x="0" y="0">8</tspan>
                        </text>
                    </g>
                    <g transform="translate(-593.996 1638.683) rotate(-90)">
                        <g transform="matrix(1, 0, 0, 1, 1460, 152)" filter="url(#c)">
                            <circle cx="13.5" cy="13.5" r="13.5" transform="translate(130 429)" fill="#fff" />
                        </g>
                        <text transform="translate(1598 601)" fill="#f11f35" font-size="16" font-family="Montserrat-Regular, Montserrat">
                            <tspan x="0" y="0"></tspan>
                        </text>
                    </g>
                </g>
                <g transform="translate(0 4)">
                    <g transform="translate(0.004 0)">
                        <g transform="translate(0 0.811)" fill="#fff" stroke="#13293d" stroke-width="1">
                            <rect width="70" height="70" rx="5" stroke="none" />
                            <rect x="0.5" y="0.5" width="69" height="69" rx="4.5" fill="none" />
                        </g>
                    </g>
                    <g transform="translate(20.004 41.811) rotate(-90)">
                        <text transform="translate(0 22)" fill="#13293d" font-size="22" font-family="Montserrat-Regular, Montserrat">
                            <tspan x="0" y="0">9</tspan>
                        </text>
                    </g>
                </g>
            </g>
            <g transform="translate(341.849 0)">
                <g transform="translate(0 244.692)">
                    <g transform="translate(0 0)">
                        <g transform="translate(-0.946 0.119)" fill="#fff" stroke="#13293d" stroke-width="1">
                            <rect width="70" height="70" rx="5" stroke="none" />
                            <rect x="0.5" y="0.5" width="69" height="69" rx="4.5" fill="none" />
                        </g>
                    </g>
                    <g transform="translate(21.054 46.119) rotate(-90)">
                        <text transform="translate(0 21)" fill="#13293d" font-size="22" font-family="Montserrat-Regular, Montserrat">
                            <tspan x="0" y="0">10</tspan>
                        </text>
                    </g>
                </g>
                <g transform="translate(0 164.128)">
                    <g transform="translate(0 0)">
                        <rect width="70" height="70" rx="5" transform="translate(-0.946 0.683)" fill="#f3d228" />
                    </g>
                    <g transform="translate(21.054 43.683) rotate(-90)">
                        <text transform="translate(0 21)" fill="#fbfbff" font-size="22" font-family="Montserrat-Regular, Montserrat">
                            <tspan x="0" y="0">11</tspan>
                        </text>
                    </g>
                </g>
                <g transform="translate(0 4)">
                    <g transform="translate(0 0)">
                        <g transform="translate(-0.946 0.811)" fill="#fff" stroke="#13293d" stroke-width="1">
                            <rect width="70" height="70" rx="5" stroke="none" />
                            <rect x="0.5" y="0.5" width="69" height="69" rx="4.5" fill="none" />
                        </g>
                    </g>
                    <g transform="translate(20.054 45.811) rotate(-90)">
                        <text transform="translate(0 22)" fill="#13293d" font-size="22" font-family="Montserrat-Regular, Montserrat">
                            <tspan x="0" y="0">12</tspan>
                        </text>
                    </g>
                </g>
            </g>
            <g transform="translate(455.799 0)">
                <g transform="translate(0 244.692)">
                    <g transform="translate(0 0)">
                        <g transform="translate(-0.896 0.119)" fill="#fff" stroke="#13293d" stroke-width="1">
                            <rect width="70" height="70" rx="5" stroke="none" />
                            <rect x="0.5" y="0.5" width="69" height="69" rx="4.5" fill="none" />
                        </g>
                    </g>
                    <g transform="translate(20.104 45.119) rotate(-90)">
                        <text transform="translate(0 22)" fill="#13293d" font-size="22" font-family="Montserrat-Regular, Montserrat">
                            <tspan x="0" y="0">13</tspan>
                        </text>
                    </g>
                </g>
                <g transform="translate(0 164.128)">
                    <g transform="translate(-0.896 0.683)">
                        <g fill="#fff" stroke="#13293d" stroke-width="1">
                            <rect width="70" height="70" rx="5" stroke="none" />
                            <rect x="0.5" y="0.5" width="69" height="69" rx="4.5" fill="none" />
                        </g>
                    </g>
                    <g transform="translate(21.104 46.683) rotate(-90)">
                        <text transform="translate(0 21)" fill="#13293d" font-size="22" font-family="Montserrat-Regular, Montserrat">
                            <tspan x="0" y="0">14</tspan>
                        </text>
                    </g>
                </g>
                <g transform="translate(0 4)">
                    <g transform="translate(0 0)">
                        <g transform="translate(-0.896 0.811)" fill="#fff" stroke="#13293d" stroke-width="1">
                            <rect width="70" height="70" rx="5" stroke="none" />
                            <rect x="0.5" y="0.5" width="69" height="69" rx="4.5" fill="none" />
                        </g>
                    </g>
                    <g transform="translate(20.104 45.811) rotate(-90)">
                        <text transform="translate(0 22)" fill="#13293d" font-size="22" font-family="Montserrat-Regular, Montserrat">
                            <tspan x="0" y="0">15</tspan>
                        </text>
                    </g>
                </g>
            </g>
            <g transform="translate(569.749 0)">
                <g transform="translate(0 244.692)">
                    <g transform="translate(0 0)">
                        <rect width="70" height="70" rx="5" transform="translate(-0.846 0.119)" fill="#f3d228" />
                    </g>
                    <g transform="translate(20.154 45.119) rotate(-90)">
                        <text transform="translate(0 22)" fill="#fbfbff" font-size="22" font-family="Montserrat-Regular, Montserrat">
                            <tspan x="0" y="0">16</tspan>
                        </text>
                    </g>
                </g>
                <g transform="translate(0 164.128)">
                    <g transform="translate(0 0)">
                        <rect width="70" height="70" rx="5" transform="translate(-0.846 0.683)" fill="#f3d228" />
                    </g>
                    <g transform="translate(20.154 45.683) rotate(-90)">
                        <text transform="translate(0 22)" fill="#fbfbff" font-size="22" font-family="Montserrat-Regular, Montserrat">
                            <tspan x="0" y="0">17</tspan>
                        </text>
                    </g>
                </g>
                <g transform="translate(0 84.564)">
                    <g transform="translate(-0.846 0.247)">
                        <g fill="#fff" stroke="#13293d" stroke-width="1">
                            <rect width="70" height="70" rx="5" stroke="none" />
                            <rect x="0.5" y="0.5" width="69" height="69" rx="4.5" fill="none" />
                        </g>
                    </g>
                    <g transform="translate(20.154 46.247) rotate(-90)">
                        <text transform="translate(0 22)" fill="#13293d" font-size="22" font-family="Montserrat-Regular, Montserrat">
                            <tspan x="0" y="0">18</tspan>
                        </text>
                    </g>
                </g>
                <g transform="translate(0 4)">
                    <g transform="translate(0 0)">
                        <g transform="translate(-0.846 0.811)" fill="#fff" stroke="#13293d" stroke-width="1">
                            <rect width="70" height="70" rx="5" stroke="none" />
                            <rect x="0.5" y="0.5" width="69" height="69" rx="4.5" fill="none" />
                        </g>
                    </g>
                    <g transform="translate(20.154 45.811) rotate(-90)">
                        <text transform="translate(0 22)" fill="#13293d" font-size="22" font-family="Montserrat-Regular, Montserrat">
                            <tspan x="0" y="0">19</tspan>
                        </text>
                    </g>
                </g>
            </g>
        </g>
        <g transform="translate(1239.37 715.378)">
            <g transform="translate(0 195.514)">
                <g transform="translate(0 0)">
                    <rect width="70" height="70" rx="5" transform="translate(-0.16 0.108)" fill="#13293d" />
                </g>
                <g transform="translate(1 1)">
                    <text transform="translate(41.84 42.108) rotate(-90)" fill="#fbfbff" font-size="22" font-family="Montserrat-Regular, Montserrat">
                        <tspan x="0" y="0">В</tspan>
                    </text>
                </g>
            </g>
            <g transform="translate(0 80.564)">
                <g transform="translate(0 0)">
                    <g transform="translate(-0.16 0.058)" fill="#fff" stroke="#13293d" stroke-width="1">
                        <rect width="70" height="70" rx="5" stroke="none" />
                        <rect x="0.5" y="0.5" width="69" height="69" rx="4.5" fill="none" />
                    </g>
                </g>
                <g transform="translate(20.84 20.058)">
                    <text transform="translate(22 28) rotate(-90)" fill="#13293d" font-size="22" font-family="Montserrat-Regular, Montserrat">
                        <tspan x="0" y="0">20</tspan>
                    </text>
                </g>
            </g>
            <g transform="translate(0 0)">
                <g transform="translate(0 0)">
                    <g transform="translate(-0.16 0.622)" fill="#fff" stroke="#13293d" stroke-width="1">
                        <rect width="70" height="70" rx="5" stroke="none" />
                        <rect x="0.5" y="0.5" width="69" height="69" rx="4.5" fill="none" />
                    </g>
                </g>
                <g transform="translate(20.84 45.622) rotate(-90)">
                    <text transform="translate(0 22)" fill="#13293d" font-size="22" font-family="Montserrat-Regular, Montserrat">
                        <tspan x="0" y="0">21</tspan>
                    </text>
                </g>
            </g>
        </g>
    </g>
</svg>
