<svg xmlns="http://www.w3.org/2000/svg" xmlns:xlink="http://www.w3.org/1999/xlink" width="55" height="10" viewBox="0 0 55 10">
  <defs>
    <clipPath id="clip-path">
      <rect id="Rectangle_9" data-name="Rectangle 9" width="55" height="10" fill="#1599fc"/>
    </clipPath>
  </defs>
  <g id="arrow" transform="translate(581.999 489.526) rotate(180)">
    <g id="Group_60" data-name="Group 60" transform="translate(526.999 479.526)">
      <g id="Group_59" data-name="Group 59" transform="translate(0 0)" clip-path="url(#clip-path)">
        <path id="Path_41" data-name="Path 41" d="M603.624,481.426l-8.407-4.339a.77.77,0,0,0-.985.236.61.61,0,0,0,.264.881l6.077,3.137H549.721a.649.649,0,1,0,0,1.29h50.847l-6.072,3.135a.609.609,0,0,0-.264.881.741.741,0,0,0,.625.323.784.784,0,0,0,.36-.087l8.407-4.339a.613.613,0,0,0,0-1.117Zm0,0" transform="translate(-548.999 -477)" fill="#1599fc"/>
      </g>
    </g>
  </g>
</svg>
